
This Must Be the Place (2011) 1080p MKV x264 AC3+DTS NL Subs
.
[IMG]http://img259.imageshack.us/img259/7310/86905454.jpg[/IMG]
.
ItaliÙ / Frankrijk / Ierland
Roadmovie / Drama
118 minuten

geregisseerd door Paolo Sorrentino
met Sean Penn, Frances McDormand en Harry Dean Stanton

Cheyenne, een rijke voormalige rockster die z?ån pensioen maar saai en vermoeiend vindt, besluit op zoek te gaan naar de kwelduivel van z?ån vader, een ex-nazi oorlogsmisdadiger die zich momenteel in de VS verschuilt. Als hij verneemt dat z?ån vader op sterven ligt, reist hij naar New York in de hoop zich met hem te kunnen verzoenen. Het brengt hem op een bijzondere reis, wanneer blijkt dat zijn vader overleden is.

Vanaf 17 mei in de bioscoop
.  
http://www.moviemeter.nl/film/73012
.
PLOT
.
A bored, retired rock star sets out to find his father's executioner, an ex-Nazi war criminal who is a refugee in the U.S. 
.  
http://www.imdb.com/title/tt1440345/
.
INFO
.
NL Vertaling: SRT-TEAM
.
Format                           : Matroska
Format version                   : Version 2
File size                        : 8.48 GiB
Duration                         : 1h 58mn
Overall bit rate                 : 10.2 Mbps
Encoded date                     : UTC 2012-02-25 16:51:26
Writing application              : mkvmerge v5.2.0 ('I can't explain') built on Dec 18 2011 18:12:03
Writing library                  : libebml v1.2.3 + libmatroska v1.3.0

Video
ID                               : 1
Format                           : AVC
Format/Info                      : Advanced Video Codec
Format profile                   : High@L4.1
Format settings, CABAC           : Yes
Format settings, ReFrames        : 5 frames
Codec ID                         : V_MPEG4/ISO/AVC
Duration                         : 1h 58mn
Bit rate                         : 8 097 Kbps
Width                            : 1 920 pixels
Height                           : 816 pixels
Display aspect ratio             : 2.35:1
Frame rate                       : 23.976 fps
Color space                      : YUV
Chroma subsampling               : 4:2:0
Bit depth                        : 8 bits
Scan type                        : Progressive
Bits/(Pixel*Frame)               : 0.216
Stream size                      : 6.53 GiB (77%)
Writing library                  : x264 core 120 r2164 da19765
Encoding settings                : cabac=1 / ref=5 / deblock=1:0:0 / analyse=0x3:0x133 / me=umh / subme=7 / psy=1 / psy_rd=1.00:0.02 / mixed_ref=1 / me_range=16 / chroma_me=1 / trellis=2 / 8x8dct=1 / cqm=0 / deadzone=21,11 / fast_pskip=0 / chroma_qp_offset=-3 / threads=12 / sliced_threads=0 / nr=0 / decimate=1 / interlaced=0 / bluray_compat=0 / constrained_intra=0 / bframes=3 / b_pyramid=2 / b_adapt=2 / b_bias=0 / direct=1 / weightb=1 / open_gop=0 / weightp=2 / keyint=240 / keyint_min=23 / scenecut=40 / intra_refresh=0 / rc_lookahead=40 / rc=2pass / mbtree=1 / bitrate=8097 / ratetol=1.0 / qcomp=0.60 / qpmin=10 / qpmax=51 / qpstep=4 / cplxblur=20.0 / qblur=0.5 / ip_ratio=1.40 / aq=1:1.00
Language                         : English
Default                          : Yes
Forced                           : No

Audio #1
ID                               : 2
Format                           : DTS
Format/Info                      : Digital Theater Systems
Codec ID                         : A_DTS
Duration                         : 1h 58mn
Bit rate mode                    : Constant
Bit rate                         : 1 510 Kbps
Channel(s)                       : 6 channels
Channel positions                : Front: L C R, Side: L R, LFE
Sampling rate                    : 48.0 KHz
Bit depth                        : 24 bits
Compression mode                 : Lossy
Stream size                      : 1.25 GiB (15%)
Title                            : DTS
Language                         : English
Default                          : Yes
Forced                           : No

Audio #2
ID                               : 3
Format                           : AC-3
Format/Info                      : Audio Coding 3
Mode extension                   : CM (complete main)
Codec ID                         : A_AC3
Duration                         : 1h 58mn
Bit rate mode                    : Constant
Bit rate                         : 640 Kbps
Channel(s)                       : 6 channels
Channel positions                : Front: L C R, Side: L R, LFE
Sampling rate                    : 48.0 KHz
Bit depth                        : 16 bits
Compression mode                 : Lossy
Stream size                      : 542 MiB (6%)
Title                            : AC3
Language                         : English
Default                          : No
Forced                           : No

Text
ID                               : 4
Format                           : UTF-8
Codec ID                         : S_TEXT/UTF8
Codec ID/Info                    : UTF-8 Plain Text
Title                            : SRT TEAM
Language                         : Dutch
Default                          : Yes
Forced                           : No

Menu
00:00:00.000                     : en:00:00:00.000
00:06:31.891                     : en:00:06:31.891
00:11:17.135                     : en:00:11:17.135
00:13:17.839                     : en:00:13:17.839
00:16:28.404                     : en:00:16:28.404
00:20:01.826                     : en:00:20:01.826
00:26:20.078                     : en:00:26:20.078
00:29:42.072                     : en:00:29:42.072
00:34:14.135                     : en:00:34:14.135
00:40:27.091                     : en:00:40:27.091
00:44:07.770                     : en:00:44:07.770
00:50:14.386                     : en:00:50:14.386
00:53:01.470                     : en:00:53:01.470
00:58:05.732                     : en:00:58:05.732
01:04:11.264                     : en:01:04:11.264
01:07:20.495                     : en:01:07:20.495
01:09:20.031                     : en:01:09:20.031
01:12:40.815                     : en:01:12:40.815
01:18:56.523                     : en:01:18:56.523
01:24:01.286                     : en:01:24:01.286
01:27:56.730                     : en:01:27:56.730
01:32:50.774                     : en:01:32:50.774
01:41:28.207                     : en:01:41:28.207
01:50:36.672                     : en:01:50:36.672
.
Enjoy
